<svg id="SvgjsSvg1532" width="438.1875" height="1002.5" xmlns="http://www.w3.org/2000/svg" version="1.1" xmlns:xlink="http://www.w3.org/1999/xlink" xmlns:svgjs="http://svgjs.com/svgjs"><defs id="SvgjsDefs1533"><pattern patternUnits="userSpaceOnUse" id="pattern_mark_0" width="300" height="300"><text x="150" y="100" fill="rgba(215,212,211,0.8)" font-size="18" transform="rotate(-45, 150, 150)" style="dominant-baseline: middle; text-anchor: middle;"></text></pattern><pattern patternUnits="userSpaceOnUse" id="pattern_mark_1" width="300" height="300"><text x="150" y="200" fill="rgba(215,212,211,0.8)" font-size="18" transform="rotate(-45, 150, 150)" style="dominant-baseline: middle; text-anchor: middle;"></text></pattern><marker id="SvgjsMarker1555" markerWidth="13" markerHeight="9" refX="9.5" refY="4.5" viewBox="0 0 13 9" orient="auto" markerUnits="userSpaceOnUse" stroke-dasharray="0,0"><path id="SvgjsPath1556" d="M0,0 L13,4.5 L0,9 L0,0" fill="#323232" stroke="#323232" stroke-width="1"></path></marker><marker id="SvgjsMarker1563" markerWidth="13" markerHeight="9" refX="9.5" refY="4.5" viewBox="0 0 13 9" orient="auto" markerUnits="userSpaceOnUse" stroke-dasharray="0,0"><path id="SvgjsPath1564" d="M0,0 L13,4.5 L0,9 L0,0" fill="#323232" stroke="#323232" stroke-width="1"></path></marker><marker id="SvgjsMarker1577" markerWidth="13" markerHeight="9" refX="9.5" refY="4.5" viewBox="0 0 13 9" orient="auto" markerUnits="userSpaceOnUse" stroke-dasharray="0,0"><path id="SvgjsPath1578" d="M0,0 L13,4.5 L0,9 L0,0" fill="#323232" stroke="#323232" stroke-width="1"></path></marker><marker id="SvgjsMarker1581" markerWidth="13" markerHeight="9" refX="9.5" refY="4.5" viewBox="0 0 13 9" orient="auto" markerUnits="userSpaceOnUse" stroke-dasharray="0,0"><path id="SvgjsPath1582" d="M0,0 L13,4.5 L0,9 L0,0" fill="#323232" stroke="#323232" stroke-width="1"></path></marker><marker id="SvgjsMarker1599" markerWidth="13" markerHeight="9" refX="9.5" refY="4.5" viewBox="0 0 13 9" orient="auto" markerUnits="userSpaceOnUse" stroke-dasharray="0,0"><path id="SvgjsPath1600" d="M0,0 L13,4.5 L0,9 L0,0" fill="#323232" stroke="#323232" stroke-width="1"></path></marker><marker id="SvgjsMarker1619" markerWidth="13" markerHeight="9" refX="9.5" refY="4.5" viewBox="0 0 13 9" orient="auto" markerUnits="userSpaceOnUse" stroke-dasharray="0,0"><path id="SvgjsPath1620" d="M0,0 L13,4.5 L0,9 L0,0" fill="#323232" stroke="#323232" stroke-width="1"></path></marker><marker id="SvgjsMarker1633" markerWidth="13" markerHeight="9" refX="9.5" refY="4.5" viewBox="0 0 13 9" orient="auto" markerUnits="userSpaceOnUse" stroke-dasharray="0,0"><path id="SvgjsPath1634" d="M0,0 L13,4.5 L0,9 L0,0" fill="#323232" stroke="#323232" stroke-width="1"></path></marker><marker id="SvgjsMarker1643" markerWidth="13" markerHeight="9" refX="9.5" refY="4.5" viewBox="0 0 13 9" orient="auto" markerUnits="userSpaceOnUse" stroke-dasharray="0,0"><path id="SvgjsPath1644" d="M0,0 L13,4.5 L0,9 L0,0" fill="#323232" stroke="#323232" stroke-width="1"></path></marker><marker id="SvgjsMarker1653" markerWidth="13" markerHeight="9" refX="9.5" refY="4.5" viewBox="0 0 13 9" orient="auto" markerUnits="userSpaceOnUse" stroke-dasharray="0,0"><path id="SvgjsPath1654" d="M0,0 L13,4.5 L0,9 L0,0" fill="#323232" stroke="#323232" stroke-width="1"></path></marker><marker id="SvgjsMarker1671" markerWidth="13" markerHeight="9" refX="9.5" refY="4.5" viewBox="0 0 13 9" orient="auto" markerUnits="userSpaceOnUse" stroke-dasharray="0,0"><path id="SvgjsPath1672" d="M0,0 L13,4.5 L0,9 L0,0" fill="#323232" stroke="#323232" stroke-width="1"></path></marker><marker id="SvgjsMarker1703" markerWidth="13" markerHeight="9" refX="9.5" refY="4.5" viewBox="0 0 13 9" orient="auto" markerUnits="userSpaceOnUse" stroke-dasharray="0,0"><path id="SvgjsPath1704" d="M0,0 L13,4.5 L0,9 L0,0" fill="#323232" stroke="#323232" stroke-width="1"></path></marker><marker id="SvgjsMarker1715" markerWidth="13" markerHeight="9" refX="9.5" refY="4.5" viewBox="0 0 13 9" orient="auto" markerUnits="userSpaceOnUse" stroke-dasharray="0,0"><path id="SvgjsPath1716" d="M0,0 L13,4.5 L0,9 L0,0" fill="#323232" stroke="#323232" stroke-width="1"></path></marker><marker id="SvgjsMarker1727" markerWidth="13" markerHeight="9" refX="9.5" refY="4.5" viewBox="0 0 13 9" orient="auto" markerUnits="userSpaceOnUse" stroke-dasharray="0,0"><path id="SvgjsPath1728" d="M0,0 L13,4.5 L0,9 L0,0" fill="#323232" stroke="#323232" stroke-width="1"></path></marker><marker id="SvgjsMarker1737" markerWidth="13" markerHeight="9" refX="9.5" refY="4.5" viewBox="0 0 13 9" orient="auto" markerUnits="userSpaceOnUse" stroke-dasharray="0,0"><path id="SvgjsPath1738" d="M0,0 L13,4.5 L0,9 L0,0" fill="#323232" stroke="#323232" stroke-width="1"></path></marker><marker id="SvgjsMarker1747" markerWidth="13" markerHeight="9" refX="9.5" refY="4.5" viewBox="0 0 13 9" orient="auto" markerUnits="userSpaceOnUse" stroke-dasharray="0,0"><path id="SvgjsPath1748" d="M0,0 L13,4.5 L0,9 L0,0" fill="#323232" stroke="#323232" stroke-width="1"></path></marker><marker id="SvgjsMarker1759" markerWidth="13" markerHeight="9" refX="9.5" refY="4.5" viewBox="0 0 13 9" orient="auto" markerUnits="userSpaceOnUse" stroke-dasharray="0,0"><path id="SvgjsPath1760" d="M0,0 L13,4.5 L0,9 L0,0" fill="#323232" stroke="#323232" stroke-width="1"></path></marker><marker id="SvgjsMarker1771" markerWidth="13" markerHeight="9" refX="9.5" refY="4.5" viewBox="0 0 13 9" orient="auto" markerUnits="userSpaceOnUse" stroke-dasharray="0,0"><path id="SvgjsPath1772" d="M0,0 L13,4.5 L0,9 L0,0" fill="#323232" stroke="#323232" stroke-width="1"></path></marker><marker id="SvgjsMarker1785" markerWidth="13" markerHeight="9" refX="9.5" refY="4.5" viewBox="0 0 13 9" orient="auto" markerUnits="userSpaceOnUse" stroke-dasharray="0,0"><path id="SvgjsPath1786" d="M0,0 L13,4.5 L0,9 L0,0" fill="#323232" stroke="#323232" stroke-width="1"></path></marker><marker id="SvgjsMarker1789" markerWidth="13" markerHeight="9" refX="9.5" refY="4.5" viewBox="0 0 13 9" orient="auto" markerUnits="userSpaceOnUse" stroke-dasharray="0,0"><path id="SvgjsPath1790" d="M0,0 L13,4.5 L0,9 L0,0" fill="#323232" stroke="#323232" stroke-width="1"></path></marker><marker id="SvgjsMarker1793" markerWidth="13" markerHeight="9" refX="9.5" refY="4.5" viewBox="0 0 13 9" orient="auto" markerUnits="userSpaceOnUse" stroke-dasharray="0,0"><path id="SvgjsPath1794" d="M0,0 L13,4.5 L0,9 L0,0" fill="#323232" stroke="#323232" stroke-width="1"></path></marker></defs><rect id="svgbackgroundid" width="438.1875" height="1002.5" fill="#efeceb"></rect><rect id="SvgjsRect1535" width="438.1875" height="1002.5" fill="url(#pattern_mark_0)"></rect><rect id="SvgjsRect1536" width="438.1875" height="1002.5" fill="url(#pattern_mark_1)"></rect><g id="SvgjsG1537" transform="translate(25,104.25)"><path id="SvgjsPath1538" d="M 0 0L 358 0L 358 294.75L 0 294.75Z" stroke="rgba(50,50,50,1)" stroke-width="1.5" fill-opacity="1" fill="#ffffed"></path><g id="SvgjsG1539"><text id="SvgjsText1540" font-family="微软雅黑" text-anchor="middle" font-size="13px" width="338px" fill="#323232" font-weight="400" align="middle" lineHeight="125%" anchor="middle" family="微软雅黑" size="13px" weight="400" font-style="" opacity="1" y="136.75" transform="rotate(0)"></text></g></g><g id="SvgjsG1541" transform="translate(164.0625,25)"><path id="SvgjsPath1542" d="M 12.666666666666666 0L 87.33333333333333 0C 104.22222222222223 0 104.22222222222223 38 87.33333333333333 38L 12.666666666666666 38C -4.222222222222222 38 -4.222222222222222 0 12.666666666666666 0Z" stroke="rgba(50,50,50,1)" stroke-width="2" fill-opacity="1" fill="#d6dfe1"></path><g id="SvgjsG1543"><text id="SvgjsText1544" font-family="微软雅黑" text-anchor="middle" font-size="13px" width="80px" fill="#323232" font-weight="400" align="middle" lineHeight="125%" anchor="middle" family="微软雅黑" size="13px" weight="400" font-style="" opacity="1" y="8.375" transform="rotate(0)"><tspan id="SvgjsTspan1545" dy="16.25" x="50"><tspan id="SvgjsTspan1546" style="">主要函数</tspan></tspan></text></g></g><g id="SvgjsG1547" transform="translate(204.625,165.5)"><path id="SvgjsPath1548" d="M 0 34.25L 54.4375 0L 108.875 34.25L 54.4375 68.5L 0 34.25Z" stroke="rgba(50,50,50,1)" stroke-width="1.5" fill-opacity="1" fill="#ffffed"></path><g id="SvgjsG1549"><text id="SvgjsText1550" font-family="微软雅黑" text-anchor="middle" font-size="13px" width="89px" fill="#323232" font-weight="400" align="middle" lineHeight="125%" anchor="middle" family="微软雅黑" size="13px" weight="400" font-style="" opacity="1" y="23.625" transform="rotate(0)"><tspan id="SvgjsTspan1551" dy="16.25" x="54.5"><tspan id="SvgjsTspan1552" style="">上一级存在？</tspan></tspan></text></g></g><g id="SvgjsG1553"><path id="SvgjsPath1554" d="M259.0625 234.75L259.0625 256.05" stroke="#323232" stroke-width="1.5" fill="none" marker-end="url(#SvgjsMarker1555)"></path><rect id="SvgjsRect1557" width="26" height="16" x="246.0625" y="233.52727272727273" fill="#ffffff"></rect><text id="SvgjsText1558" font-family="微软雅黑" text-anchor="middle" font-size="13px" width="26px" fill="#323232" font-weight="400" align="top" lineHeight="16px" anchor="middle" family="微软雅黑" size="13px" weight="400" font-style="" opacity="1" y="230.90227272727273" transform="rotate(0)"><tspan id="SvgjsTspan1559" dy="16.25" x="259.0625"><tspan id="SvgjsTspan1560" style="">存在</tspan></tspan></text></g><g id="SvgjsG1561"><path id="SvgjsPath1562" d="M203.875 199.75L159.95 199.75" stroke="#323232" stroke-width="1.5" fill="none" marker-end="url(#SvgjsMarker1563)"></path><rect id="SvgjsRect1565" width="39" height="16" x="167.95086956521737" y="191.75" fill="#ffffff"></rect><text id="SvgjsText1566" font-family="微软雅黑" text-anchor="middle" font-size="13px" width="39px" fill="#323232" font-weight="400" align="top" lineHeight="16px" anchor="middle" family="微软雅黑" size="13px" weight="400" font-style="" opacity="1" y="189.125" transform="rotate(0)"><tspan id="SvgjsTspan1567" dy="16.25" x="187.45086956521737"><tspan id="SvgjsTspan1568" style="">不存在</tspan></tspan></text></g><g id="SvgjsG1569" transform="translate(209.0625,103.25)"><path id="SvgjsPath1570" d="M 15 0L 85 0C 105 0 105 45 85 45L 15 45C -5 45 -5 0 15 0Z" stroke="rgba(50,50,50,1)" stroke-width="2" fill-opacity="1" fill="#d6dfe1"></path><g id="SvgjsG1571"><text id="SvgjsText1572" font-family="微软雅黑" text-anchor="middle" font-size="13px" width="80px" fill="#323232" font-weight="400" align="middle" lineHeight="125%" anchor="middle" family="微软雅黑" size="13px" weight="400" font-style="" opacity="1" y="11.875" transform="rotate(0)"><tspan id="SvgjsTspan1573" dy="16.25" x="50"><tspan id="SvgjsTspan1574" style="">heapInsert</tspan></tspan></text></g></g><g id="SvgjsG1575"><path id="SvgjsPath1576" d="M214.07023589826673 63.99997007749133L214.3656604187907 102.18760782754343" stroke="#323232" stroke-width="1.5" fill="none" marker-end="url(#SvgjsMarker1577)"></path></g><g id="SvgjsG1579"><path id="SvgjsPath1580" d="M259.0625 149.25L259.0625 162.8" stroke="#323232" stroke-width="1.5" fill="none" marker-end="url(#SvgjsMarker1581)"></path></g><g id="SvgjsG1583" transform="translate(57,174.75)"><path id="SvgjsPath1584" d="M 16.666666666666668 0L 83.33333333333333 0C 105.55555555555556 0 105.55555555555556 50 83.33333333333333 50L 16.666666666666668 50C -5.555555555555556 50 -5.555555555555556 0 16.666666666666668 0Z" stroke="rgba(50,50,50,1)" stroke-width="2" fill-opacity="1" fill="#d6dfe1"></path><g id="SvgjsG1585"><text id="SvgjsText1586" font-family="微软雅黑" text-anchor="middle" font-size="13px" width="80px" fill="#323232" font-weight="400" align="middle" lineHeight="125%" anchor="middle" family="微软雅黑" size="13px" weight="400" font-style="" opacity="1" y="5.875" transform="rotate(0)"><tspan id="SvgjsTspan1587" dy="16.25" x="50"><tspan id="SvgjsTspan1588" style="">heapsize</tspan></tspan><tspan id="SvgjsTspan1589" dy="16.25" x="50"><tspan id="SvgjsTspan1590" style="">结束</tspan></tspan></text></g></g><g id="SvgjsG1591" transform="translate(190.328125,258.75)"><path id="SvgjsPath1592" d="M 0 35.375L 68.734375 0L 137.46875 35.375L 68.734375 70.75L 0 35.375Z" stroke="rgba(50,50,50,1)" stroke-width="1.5" fill-opacity="1" fill="#ffffed"></path><g id="SvgjsG1593"><text id="SvgjsText1594" font-family="微软雅黑" text-anchor="middle" font-size="13px" width="118px" fill="#323232" font-weight="400" align="middle" lineHeight="125%" anchor="middle" family="微软雅黑" size="13px" weight="400" font-style="" opacity="1" y="24.75" transform="rotate(0)"><tspan id="SvgjsTspan1595" dy="16.25" x="69"><tspan id="SvgjsTspan1596" style="">是否大于上一级？</tspan></tspan></text></g></g><g id="SvgjsG1597"><path id="SvgjsPath1598" d="M259.0625 330.25L259.0625 351.55" stroke="#323232" stroke-width="1.5" fill="none" marker-end="url(#SvgjsMarker1599)"></path><rect id="SvgjsRect1601" width="26" height="16" x="246.0625" y="328.3357142857143" fill="#ffffff"></rect><text id="SvgjsText1602" font-family="微软雅黑" text-anchor="middle" font-size="13px" width="26px" fill="#323232" font-weight="400" align="top" lineHeight="16px" anchor="middle" family="微软雅黑" size="13px" weight="400" font-style="" opacity="1" y="325.7107142857143" transform="rotate(0)"><tspan id="SvgjsTspan1603" dy="16.25" x="259.0625"><tspan id="SvgjsTspan1604" style="">大于</tspan></tspan></text><rect id="SvgjsRect1605" width="26" height="16" x="246.0625" y="325.82709923664123" fill="#ffffff"></rect><text id="SvgjsText1606" font-family="微软雅黑" text-anchor="middle" font-size="13px" width="26px" fill="#323232" font-weight="400" align="top" lineHeight="16px" anchor="middle" family="微软雅黑" size="13px" weight="400" font-style="" opacity="1" y="323.20209923664123" transform="rotate(0)"><tspan id="SvgjsTspan1607" dy="16.25" x="259.0625"><tspan id="SvgjsTspan1608" style="">小于</tspan></tspan></text></g><g id="SvgjsG1609" transform="translate(57,269.125)"><path id="SvgjsPath1610" d="M 16.666666666666668 0L 83.33333333333333 0C 105.55555555555556 0 105.55555555555556 50 83.33333333333333 50L 16.666666666666668 50C -5.555555555555556 50 -5.555555555555556 0 16.666666666666668 0Z" stroke="rgba(50,50,50,1)" stroke-width="2" fill-opacity="1" fill="#d6dfe1"></path><g id="SvgjsG1611"><text id="SvgjsText1612" font-family="微软雅黑" text-anchor="middle" font-size="13px" width="80px" fill="#323232" font-weight="400" align="middle" lineHeight="125%" anchor="middle" family="微软雅黑" size="13px" weight="400" font-style="" opacity="1" y="5.875" transform="rotate(0)"><tspan id="SvgjsTspan1613" dy="16.25" x="50"><tspan id="SvgjsTspan1614" style="">heapsize</tspan></tspan><tspan id="SvgjsTspan1615" dy="16.25" x="50"><tspan id="SvgjsTspan1616" style="">结束</tspan></tspan></text></g></g><g id="SvgjsG1617"><path id="SvgjsPath1618" d="M189.578125 294.125L159.95 294.125" stroke="#323232" stroke-width="1.5" fill="none" marker-end="url(#SvgjsMarker1619)"></path><rect id="SvgjsRect1621" width="26" height="16" x="162.44582795698923" y="286.125" fill="#ffffff"></rect><text id="SvgjsText1622" font-family="微软雅黑" text-anchor="middle" font-size="13px" width="26px" fill="#323232" font-weight="400" align="top" lineHeight="16px" anchor="middle" family="微软雅黑" size="13px" weight="400" font-style="" opacity="1" y="283.5" transform="rotate(0)"><tspan id="SvgjsTspan1623" dy="16.25" x="175.44582795698923"><tspan id="SvgjsTspan1624" style="">大于</tspan></tspan></text></g><g id="SvgjsG1625" transform="translate(211.0625,354.25)"><path id="SvgjsPath1626" d="M 0 0L 96 0L 96 44.75L 0 44.75Z" stroke="rgba(50,50,50,1)" stroke-width="1.5" fill-opacity="1" fill="#ffffed"></path><g id="SvgjsG1627"><text id="SvgjsText1628" font-family="微软雅黑" text-anchor="middle" font-size="13px" width="76px" fill="#323232" font-weight="400" align="middle" lineHeight="125%" anchor="middle" family="微软雅黑" size="13px" weight="400" font-style="" opacity="1" y="11.75" transform="rotate(0)"><tspan id="SvgjsTspan1629" dy="16.25" x="48"><tspan id="SvgjsTspan1630" style="">与上级交换</tspan></tspan></text></g></g><g id="SvgjsG1631"><path id="SvgjsPath1632" d="M307.8125 376.625L357.796875 376.625L357.796875 294.125L330.496875 294.125" stroke="#323232" stroke-width="1.5" fill="none" marker-end="url(#SvgjsMarker1633)"></path></g><g id="SvgjsG1635" transform="translate(204.625,411.5)"><path id="SvgjsPath1636" d="M 0 35L 54.4375 0L 108.875 35L 54.4375 70Z" stroke="rgba(50,50,50,1)" stroke-width="1.5" fill-opacity="1" fill="#ffffed"></path><g id="SvgjsG1637"><text id="SvgjsText1638" font-family="微软雅黑" text-anchor="middle" font-size="13px" width="89px" fill="#323232" font-weight="400" align="middle" lineHeight="125%" anchor="middle" family="微软雅黑" size="13px" weight="400" font-style="" opacity="1" y="24.725" transform="rotate(0)"><tspan id="SvgjsTspan1639" dy="16.25" x="54.5"><tspan id="SvgjsTspan1640" style="">heapsize==0</tspan></tspan></text></g></g><g id="SvgjsG1641"><path id="SvgjsPath1642" d="M210.2009237875289 399.75L210.2009237875289 405.25L259.0625 405.25L259.0625 408.8" stroke="#323232" stroke-width="1.5" fill="none" marker-end="url(#SvgjsMarker1643)"></path></g><g id="SvgjsG1645" transform="translate(75.0625,427.5)"><path id="SvgjsPath1646" d="M 12.666666666666666 0L 87.33333333333333 0C 104.22222222222223 0 104.22222222222223 38 87.33333333333333 38L 12.666666666666666 38C -4.222222222222222 38 -4.222222222222222 0 12.666666666666666 0Z" stroke="rgba(50,50,50,1)" stroke-width="2" fill-opacity="1" fill="#d6dfe1"></path><g id="SvgjsG1647"><text id="SvgjsText1648" font-family="微软雅黑" text-anchor="middle" font-size="13px" width="80px" fill="#323232" font-weight="400" align="middle" lineHeight="125%" anchor="middle" family="微软雅黑" size="13px" weight="400" font-style="" opacity="1" y="8.375" transform="rotate(0)"><tspan id="SvgjsTspan1649" dy="16.25" x="50"><tspan id="SvgjsTspan1650" style="">结束</tspan></tspan></text></g></g><g id="SvgjsG1651"><path id="SvgjsPath1652" d="M203.875 446.5L178.0125 446.5" stroke="#323232" stroke-width="1.5" fill="none" marker-end="url(#SvgjsMarker1653)"></path><rect id="SvgjsRect1655" width="21" height="16" x="182.19245996441282" y="438.5" fill="#ffffff"></rect><text id="SvgjsText1656" font-family="微软雅黑" text-anchor="middle" font-size="13px" width="21px" fill="#323232" font-weight="400" align="top" lineHeight="16px" anchor="middle" family="微软雅黑" size="13px" weight="400" font-style="" opacity="1" y="435.875" transform="rotate(0)"><tspan id="SvgjsTspan1657" dy="16.25" x="192.69245996441282"><tspan id="SvgjsTspan1658" style="">为0</tspan></tspan></text></g><g id="SvgjsG1659" transform="translate(211.625,500.4375)"><path id="SvgjsPath1660" d="M 0 0L 96 0L 96 44.75L 0 44.75Z" stroke="rgba(50,50,50,1)" stroke-width="1.5" fill-opacity="1" fill="#ffffed"></path><g id="SvgjsG1661"><text id="SvgjsText1662" font-family="微软雅黑" text-anchor="middle" font-size="13px" width="76px" fill="#323232" font-weight="400" align="middle" lineHeight="125%" anchor="middle" family="微软雅黑" size="13px" weight="400" font-style="" opacity="1" y="-4.75" transform="rotate(0)"><tspan id="SvgjsTspan1663" dy="16.25" x="48"><tspan id="SvgjsTspan1664" style="">数组第一位</tspan></tspan><tspan id="SvgjsTspan1665" dy="16.25" x="48"><tspan id="SvgjsTspan1666" style="">和最后一位</tspan></tspan><tspan id="SvgjsTspan1667" dy="16.25" x="48"><tspan id="SvgjsTspan1668" style="">交换</tspan></tspan></text></g></g><g id="SvgjsG1669"><path id="SvgjsPath1670" d="M259.0847674069954 482.24966936884584L259.54483733481646 497.73869027215505" stroke="#323232" stroke-width="1.5" fill="none" marker-end="url(#SvgjsMarker1671)"></path><rect id="SvgjsRect1673" width="34" height="16" x="242.23812404960245" y="479.4126763366156" fill="#ffffff"></rect><text id="SvgjsText1674" font-family="微软雅黑" text-anchor="middle" font-size="13px" width="34px" fill="#323232" font-weight="400" align="top" lineHeight="16px" anchor="middle" family="微软雅黑" size="13px" weight="400" font-style="" opacity="1" y="476.7876763366156" transform="rotate(0)"><tspan id="SvgjsTspan1675" dy="16.25" x="259.23812404960245"><tspan id="SvgjsTspan1676" style="">不为0</tspan></tspan></text></g><g id="SvgjsG1677" transform="translate(50,628.25)"><path id="SvgjsPath1678" d="M 0 0L 333 0L 333 349.25L 0 349.25Z" stroke="rgba(50,50,50,1)" stroke-width="1.5" fill-opacity="1" fill="#ffffed"></path><g id="SvgjsG1679"><text id="SvgjsText1680" font-family="微软雅黑" text-anchor="middle" font-size="13px" width="313px" fill="#323232" font-weight="400" align="middle" lineHeight="125%" anchor="middle" family="微软雅黑" size="13px" weight="400" font-style="" opacity="1" y="164" transform="rotate(0)"></text></g></g><g id="SvgjsG1681" transform="translate(209.625,628.25)"><path id="SvgjsPath1682" d="M 15 0L 85 0C 105 0 105 45 85 45L 15 45C -5 45 -5 0 15 0Z" stroke="rgba(50,50,50,1)" stroke-width="2" fill-opacity="1" fill="#d6dfe1"></path><g id="SvgjsG1683"><text id="SvgjsText1684" font-family="微软雅黑" text-anchor="middle" font-size="13px" width="80px" fill="#323232" font-weight="400" align="middle" lineHeight="125%" anchor="middle" family="微软雅黑" size="13px" weight="400" font-style="" opacity="1" y="11.875" transform="rotate(0)"><tspan id="SvgjsTspan1685" dy="16.25" x="50"><tspan id="SvgjsTspan1686" style="">heapify</tspan></tspan></text></g></g><g id="SvgjsG1687" transform="translate(207.40625,691.75)"><path id="SvgjsPath1688" d="M 0 26.125L 52.21875 0L 104.4375 26.125L 52.21875 52.25L 0 26.125Z" stroke="rgba(50,50,50,1)" stroke-width="1.5" fill-opacity="1" fill="#ffffed"></path><g id="SvgjsG1689"><text id="SvgjsText1690" font-family="微软雅黑" text-anchor="middle" font-size="13px" width="85px" fill="#323232" font-weight="400" align="middle" lineHeight="125%" anchor="middle" family="微软雅黑" size="13px" weight="400" font-style="" opacity="1" y="15.5" transform="rotate(0)"><tspan id="SvgjsTspan1691" dy="16.25" x="52.5"><tspan id="SvgjsTspan1692" style="">下一级存在？</tspan></tspan></text></g></g><g id="SvgjsG1693" transform="translate(64,692.875)"><path id="SvgjsPath1694" d="M 16.666666666666668 0L 83.33333333333333 0C 105.55555555555556 0 105.55555555555556 50 83.33333333333333 50L 16.666666666666668 50C -5.555555555555556 50 -5.555555555555556 0 16.666666666666668 0Z" stroke="rgba(50,50,50,1)" stroke-width="2" fill-opacity="1" fill="#d6dfe1"></path><g id="SvgjsG1695"><text id="SvgjsText1696" font-family="微软雅黑" text-anchor="middle" font-size="13px" width="80px" fill="#323232" font-weight="400" align="middle" lineHeight="125%" anchor="middle" family="微软雅黑" size="13px" weight="400" font-style="" opacity="1" y="5.875" transform="rotate(0)"><tspan id="SvgjsTspan1697" dy="16.25" x="50"><tspan id="SvgjsTspan1698" style="">heapify</tspan></tspan><tspan id="SvgjsTspan1699" dy="16.25" x="50"><tspan id="SvgjsTspan1700" style="">结束</tspan></tspan></text></g></g><g id="SvgjsG1701"><path id="SvgjsPath1702" d="M206.65625 717.875L185.703125 717.875L185.703125 717.875L166.95 717.875" stroke="#323232" stroke-width="1.5" fill="none" marker-end="url(#SvgjsMarker1703)"></path><rect id="SvgjsRect1705" width="26" height="16" x="185.3218688118812" y="709.875" fill="#ffffff"></rect><text id="SvgjsText1706" font-family="微软雅黑" text-anchor="middle" font-size="13px" width="26px" fill="#323232" font-weight="400" align="top" lineHeight="16px" anchor="middle" family="微软雅黑" size="13px" weight="400" font-style="" opacity="1" y="707.25" transform="rotate(0)"><tspan id="SvgjsTspan1707" dy="16.25" x="198.3218688118812"><tspan id="SvgjsTspan1708" style="">存在</tspan></tspan></text><rect id="SvgjsRect1709" width="39" height="16" x="158.19056176783812" y="709.875" fill="#ffffff"></rect><text id="SvgjsText1710" font-family="微软雅黑" text-anchor="middle" font-size="13px" width="39px" fill="#323232" font-weight="400" align="top" lineHeight="16px" anchor="middle" family="微软雅黑" size="13px" weight="400" font-style="" opacity="1" y="707.25" transform="rotate(0)"><tspan id="SvgjsTspan1711" dy="16.25" x="177.69056176783812"><tspan id="SvgjsTspan1712" style="">不存在</tspan></tspan></text></g><g id="SvgjsG1713"><path id="SvgjsPath1714" d="M259.625 674.25L259.625 682.5L259.625 682.5L259.625 689.05" stroke="#323232" stroke-width="1.5" fill="none" marker-end="url(#SvgjsMarker1715)"></path></g><g id="SvgjsG1717" transform="translate(208.40625,762.5)"><path id="SvgjsPath1718" d="M 0 0L 102.4375 0L 102.4375 54L 0 54Z" stroke="rgba(50,50,50,1)" stroke-width="1.5" fill-opacity="1" fill="#ffffed"></path><g id="SvgjsG1719"><text id="SvgjsText1720" font-family="微软雅黑" text-anchor="middle" font-size="13px" width="83px" fill="#323232" font-weight="400" align="middle" lineHeight="125%" anchor="middle" family="微软雅黑" size="13px" weight="400" font-style="" opacity="1" y="7.875" transform="rotate(0)"><tspan id="SvgjsTspan1721" dy="16.25" x="51.5"><tspan id="SvgjsTspan1722" style="">取下一级最小</tspan></tspan><tspan id="SvgjsTspan1723" dy="16.25" x="51.5"><tspan id="SvgjsTspan1724" style="">的数</tspan></tspan></text></g></g><g id="SvgjsG1725"><path id="SvgjsPath1726" d="M259.625 744.75L259.625 753.25L259.625 753.25L259.625 759.8" stroke="#323232" stroke-width="1.5" fill="none" marker-end="url(#SvgjsMarker1727)"></path></g><g id="SvgjsG1729" transform="translate(192.9375,835)"><path id="SvgjsPath1730" d="M 0 35L 66.6875 0L 133.375 35L 66.6875 70L 0 35Z" stroke="rgba(50,50,50,1)" stroke-width="1.5" fill-opacity="1" fill="#ffffed"></path><g id="SvgjsG1731"><text id="SvgjsText1732" font-family="微软雅黑" text-anchor="middle" font-size="13px" width="114px" fill="#323232" font-weight="400" align="middle" lineHeight="125%" anchor="middle" family="微软雅黑" size="13px" weight="400" font-style="" opacity="1" y="24.375" transform="rotate(0)"><tspan id="SvgjsTspan1733" dy="16.25" x="67"><tspan id="SvgjsTspan1734" style="">本身&lt;下一级mim</tspan></tspan></text></g></g><g id="SvgjsG1735"><path id="SvgjsPath1736" d="M259.625 817.25L259.625 825.75L259.625 825.75L259.625 832.3" stroke="#323232" stroke-width="1.5" fill="none" marker-end="url(#SvgjsMarker1737)"></path></g><g id="SvgjsG1739" transform="translate(208.40625,923.5)"><path id="SvgjsPath1740" d="M 0 0L 102.4375 0L 102.4375 54L 0 54Z" stroke="rgba(50,50,50,1)" stroke-width="1.5" fill-opacity="1" fill="#ffffed"></path><g id="SvgjsG1741"><text id="SvgjsText1742" font-family="微软雅黑" text-anchor="middle" font-size="13px" width="83px" fill="#323232" font-weight="400" align="middle" lineHeight="125%" anchor="middle" family="微软雅黑" size="13px" weight="400" font-style="" opacity="1" y="16.375" transform="rotate(0)"><tspan id="SvgjsTspan1743" dy="16.25" x="51.5"><tspan id="SvgjsTspan1744" style="">交换</tspan></tspan></text></g></g><g id="SvgjsG1745"><path id="SvgjsPath1746" d="M259.625 905.75L259.625 914.25L259.625 914.25L259.625 920.8" stroke="#323232" stroke-width="1.5" fill="none" marker-end="url(#SvgjsMarker1747)"></path><rect id="SvgjsRect1749" width="26" height="16" x="246.625" y="903.4445945945945" fill="#ffffff"></rect><text id="SvgjsText1750" font-family="微软雅黑" text-anchor="middle" font-size="13px" width="26px" fill="#323232" font-weight="400" align="top" lineHeight="16px" anchor="middle" family="微软雅黑" size="13px" weight="400" font-style="" opacity="1" y="900.8195945945945" transform="rotate(0)"><tspan id="SvgjsTspan1751" dy="16.25" x="259.625"><tspan id="SvgjsTspan1752" style="">小于</tspan></tspan></text><rect id="SvgjsRect1753" width="26" height="16" x="246.625" y="905.0716216216216" fill="#ffffff"></rect><text id="SvgjsText1754" font-family="微软雅黑" text-anchor="middle" font-size="13px" width="26px" fill="#323232" font-weight="400" align="top" lineHeight="16px" anchor="middle" family="微软雅黑" size="13px" weight="400" font-style="" opacity="1" y="902.4466216216216" transform="rotate(0)"><tspan id="SvgjsTspan1755" dy="16.25" x="259.625"><tspan id="SvgjsTspan1756" style="">大于</tspan></tspan></text></g><g id="SvgjsG1757"><path id="SvgjsPath1758" d="M311.59375 950.5L340.84375 950.5L340.84375 717.875L313.54375 717.875" stroke="#323232" stroke-width="1.5" fill="none" marker-end="url(#SvgjsMarker1759)"></path></g><g id="SvgjsG1761" transform="translate(57,845)"><path id="SvgjsPath1762" d="M 16.666666666666668 0L 83.33333333333333 0C 105.55555555555556 0 105.55555555555556 50 83.33333333333333 50L 16.666666666666668 50C -5.555555555555556 50 -5.555555555555556 0 16.666666666666668 0Z" stroke="rgba(50,50,50,1)" stroke-width="2" fill-opacity="1" fill="#d6dfe1"></path><g id="SvgjsG1763"><text id="SvgjsText1764" font-family="微软雅黑" text-anchor="middle" font-size="13px" width="80px" fill="#323232" font-weight="400" align="middle" lineHeight="125%" anchor="middle" family="微软雅黑" size="13px" weight="400" font-style="" opacity="1" y="5.875" transform="rotate(0)"><tspan id="SvgjsTspan1765" dy="16.25" x="50"><tspan id="SvgjsTspan1766" style="">heapify</tspan></tspan><tspan id="SvgjsTspan1767" dy="16.25" x="50"><tspan id="SvgjsTspan1768" style="">结束</tspan></tspan></text></g></g><g id="SvgjsG1769"><path id="SvgjsPath1770" d="M192.1875 870L174.96875 870L174.96875 870L159.95 870" stroke="#323232" stroke-width="1.5" fill="none" marker-end="url(#SvgjsMarker1771)"></path><rect id="SvgjsRect1773" width="26" height="16" x="167.63370927318294" y="862" fill="#ffffff"></rect><text id="SvgjsText1774" font-family="微软雅黑" text-anchor="middle" font-size="13px" width="26px" fill="#323232" font-weight="400" align="top" lineHeight="16px" anchor="middle" family="微软雅黑" size="13px" weight="400" font-style="" opacity="1" y="859.375" transform="rotate(0)"><tspan id="SvgjsTspan1775" dy="16.25" x="180.63370927318294"><tspan id="SvgjsTspan1776" style="">小于</tspan></tspan></text></g><g id="SvgjsG1777" transform="translate(211.625,564.125)"><path id="SvgjsPath1778" d="M 0 0L 96 0L 96 44.75L 0 44.75Z" stroke="rgba(50,50,50,1)" stroke-width="1.5" fill-opacity="1" fill="#ffffed"></path><g id="SvgjsG1779"><text id="SvgjsText1780" font-family="微软雅黑" text-anchor="middle" font-size="13px" width="76px" fill="#323232" font-weight="400" align="middle" lineHeight="125%" anchor="middle" family="微软雅黑" size="13px" weight="400" font-style="" opacity="1" y="11.75" transform="rotate(0)"><tspan id="SvgjsTspan1781" dy="16.25" x="48"><tspan id="SvgjsTspan1782" style="">heapsize--</tspan></tspan></text></g></g><g id="SvgjsG1783"><path id="SvgjsPath1784" d="M259.625 545.9375L259.625 561.425" stroke="#323232" stroke-width="1.5" fill="none" marker-end="url(#SvgjsMarker1785)"></path></g><g id="SvgjsG1787"><path id="SvgjsPath1788" d="M259.625 609.625L259.625 625.3" stroke="#323232" stroke-width="1.5" fill="none" marker-end="url(#SvgjsMarker1789)"></path></g><g id="SvgjsG1791"><path id="SvgjsPath1792" d="M383.75 802.875L413 802.875L413 446.5L316.2 446.5" stroke="#323232" stroke-width="1.5" fill="none" marker-end="url(#SvgjsMarker1793)"></path></g></svg>