<svg id="SvgjsSvg1006" width="512.2916823167067" height="525.9895676832932" xmlns="http://www.w3.org/2000/svg" version="1.1" xmlns:xlink="http://www.w3.org/1999/xlink" xmlns:svgjs="http://svgjs.com/svgjs"><defs id="SvgjsDefs1007"><pattern patternUnits="userSpaceOnUse" id="pattern_mark_0" width="300" height="300"><text x="150" y="100" fill="rgba(215,212,211,0.8)" font-size="18" transform="rotate(-45, 150, 150)" style="dominant-baseline: middle; text-anchor: middle;"></text></pattern><pattern patternUnits="userSpaceOnUse" id="pattern_mark_1" width="300" height="300"><text x="150" y="200" fill="rgba(215,212,211,0.8)" font-size="18" transform="rotate(-45, 150, 150)" style="dominant-baseline: middle; text-anchor: middle;"></text></pattern><marker id="SvgjsMarker1019" markerWidth="13" markerHeight="9" refX="9.5" refY="4.5" viewBox="0 0 13 9" orient="auto" markerUnits="userSpaceOnUse" stroke-dasharray="0,0"><path id="SvgjsPath1020" d="M0,0 L13,4.5 L0,9 L0,0" fill="#323232" stroke="#323232" stroke-width="1"></path></marker><marker id="SvgjsMarker1029" markerWidth="13" markerHeight="9" refX="9.5" refY="4.5" viewBox="0 0 13 9" orient="auto" markerUnits="userSpaceOnUse" stroke-dasharray="0,0"><path id="SvgjsPath1030" d="M0,0 L13,4.5 L0,9 L0,0" fill="#323232" stroke="#323232" stroke-width="1"></path></marker><marker id="SvgjsMarker1045" markerWidth="13" markerHeight="9" refX="9.5" refY="4.5" viewBox="0 0 13 9" orient="auto" markerUnits="userSpaceOnUse" stroke-dasharray="0,0"><path id="SvgjsPath1046" d="M0,0 L13,4.5 L0,9 L0,0" fill="#323232" stroke="#323232" stroke-width="1"></path></marker><marker id="SvgjsMarker1057" markerWidth="13" markerHeight="9" refX="9.5" refY="4.5" viewBox="0 0 13 9" orient="auto" markerUnits="userSpaceOnUse" stroke-dasharray="0,0"><path id="SvgjsPath1058" d="M0,0 L13,4.5 L0,9 L0,0" fill="#323232" stroke="#323232" stroke-width="1"></path></marker><marker id="SvgjsMarker1075" markerWidth="13" markerHeight="9" refX="9.5" refY="4.5" viewBox="0 0 13 9" orient="auto" markerUnits="userSpaceOnUse" stroke-dasharray="0,0"><path id="SvgjsPath1076" d="M0,0 L13,4.5 L0,9 L0,0" fill="#323232" stroke="#323232" stroke-width="1"></path></marker><marker id="SvgjsMarker1079" markerWidth="13" markerHeight="9" refX="9.5" refY="4.5" viewBox="0 0 13 9" orient="auto" markerUnits="userSpaceOnUse" stroke-dasharray="0,0"><path id="SvgjsPath1080" d="M0,0 L13,4.5 L0,9 L0,0" fill="#323232" stroke="#323232" stroke-width="1"></path></marker><marker id="SvgjsMarker1089" markerWidth="13" markerHeight="9" refX="9.5" refY="4.5" viewBox="0 0 13 9" orient="auto" markerUnits="userSpaceOnUse" stroke-dasharray="0,0"><path id="SvgjsPath1090" d="M0,0 L13,4.5 L0,9 L0,0" fill="#323232" stroke="#323232" stroke-width="1"></path></marker><marker id="SvgjsMarker1105" markerWidth="13" markerHeight="9" refX="9.5" refY="4.5" viewBox="0 0 13 9" orient="auto" markerUnits="userSpaceOnUse" stroke-dasharray="0,0"><path id="SvgjsPath1106" d="M0,0 L13,4.5 L0,9 L0,0" fill="#323232" stroke="#323232" stroke-width="1"></path></marker><marker id="SvgjsMarker1109" markerWidth="13" markerHeight="9" refX="9.5" refY="4.5" viewBox="0 0 13 9" orient="auto" markerUnits="userSpaceOnUse" stroke-dasharray="0,0"><path id="SvgjsPath1110" d="M0,0 L13,4.5 L0,9 L0,0" fill="#323232" stroke="#323232" stroke-width="1"></path></marker><marker id="SvgjsMarker1119" markerWidth="13" markerHeight="9" refX="9.5" refY="4.5" viewBox="0 0 13 9" orient="auto" markerUnits="userSpaceOnUse" stroke-dasharray="0,0"><path id="SvgjsPath1120" d="M0,0 L13,4.5 L0,9 L0,0" fill="#323232" stroke="#323232" stroke-width="1"></path></marker><marker id="SvgjsMarker1123" markerWidth="13" markerHeight="9" refX="9.5" refY="4.5" viewBox="0 0 13 9" orient="auto" markerUnits="userSpaceOnUse" stroke-dasharray="0,0"><path id="SvgjsPath1124" d="M0,0 L13,4.5 L0,9 L0,0" fill="#323232" stroke="#323232" stroke-width="1"></path></marker></defs><rect id="svgbackgroundid" width="512.2916823167067" height="525.9895676832932" fill="#efeceb"></rect><rect id="SvgjsRect1009" width="512.2916823167067" height="525.9895676832932" fill="url(#pattern_mark_0)"></rect><rect id="SvgjsRect1010" width="512.2916823167067" height="525.9895676832932" fill="url(#pattern_mark_1)"></rect><g id="SvgjsG1011" transform="translate(277.3056077223558,24.99306077223558)"><path id="SvgjsPath1012" d="M 12.666666666666666 0L 87.33333333333333 0C 104.22222222222223 0 104.22222222222223 38 87.33333333333333 38L 12.666666666666666 38C -4.222222222222222 38 -4.222222222222222 0 12.666666666666666 0Z" stroke="rgba(50,50,50,1)" stroke-width="2" fill-opacity="1" fill="#d6dfe1"></path><g id="SvgjsG1013"><text id="SvgjsText1014" font-family="微软雅黑" text-anchor="middle" font-size="13px" width="80px" fill="#323232" font-weight="400" align="middle" lineHeight="125%" anchor="middle" family="微软雅黑" size="13px" weight="400" font-style="" opacity="1" y="8.375" transform="rotate(0)"><tspan id="SvgjsTspan1015" dy="16.25" x="50"><tspan id="SvgjsTspan1016" style="">主要函数</tspan></tspan></text></g></g><g id="SvgjsG1017"><path id="SvgjsPath1018" d="M327.3056077223558 63.99306077223558L327.3056077223558 68.49306077223558L322.3056077223558 68.49306077223558L322.3056077223558 71.29306077223558" stroke="#323232" stroke-width="1.5" fill="none" marker-end="url(#SvgjsMarker1019)"></path></g><g id="SvgjsG1021" transform="translate(274.3056077223558,158.9930607722356)"><path id="SvgjsPath1022" d="M 0 0L 96 0L 96 54L 0 54Z" stroke="rgba(50,50,50,1)" stroke-width="1.5" fill-opacity="1" fill="#ffffed"></path><g id="SvgjsG1023"><text id="SvgjsText1024" font-family="微软雅黑" text-anchor="middle" font-size="13px" width="76px" fill="#323232" font-weight="400" align="middle" lineHeight="125%" anchor="middle" family="微软雅黑" size="13px" weight="400" font-style="" opacity="1" y="16.375" transform="rotate(0)"><tspan id="SvgjsTspan1025" dy="16.25" x="48"><tspan id="SvgjsTspan1026" style="">初始化</tspan></tspan></text></g></g><g id="SvgjsG1027"><path id="SvgjsPath1028" d="M322.3056077223558 144.7430607722356L322.3056077223558 151.4930607722356L322.3056077223558 151.4930607722356L322.3056077223558 156.29306077223558" stroke="#323232" stroke-width="1.5" fill="none" marker-end="url(#SvgjsMarker1029)"></path></g><g id="SvgjsG1031" transform="translate(277.3056077223558,73.99306077223558)"><path id="SvgjsPath1032" d="M 0 35L 45 0L 90 35L 45 70L 0 35Z" stroke="rgba(50,50,50,1)" stroke-width="1.5" fill-opacity="1" fill="#ffffed"></path><g id="SvgjsG1033"><text id="SvgjsText1034" font-family="微软雅黑" text-anchor="middle" font-size="13px" width="70px" fill="#323232" font-weight="400" align="middle" lineHeight="125%" anchor="middle" family="微软雅黑" size="13px" weight="400" font-style="" opacity="1" y="24.375" transform="rotate(0)"><tspan id="SvgjsTspan1035" dy="16.25" x="45"><tspan id="SvgjsTspan1036" style="">链表为空</tspan></tspan></text></g></g><g id="SvgjsG1037" transform="translate(24.99791541466346,83.99306077223558)"><path id="SvgjsPath1038" d="M 16.666666666666668 0L 83.33333333333333 0C 105.55555555555556 0 105.55555555555556 50 83.33333333333333 50L 16.666666666666668 50C -5.555555555555556 50 -5.555555555555556 0 16.666666666666668 0Z" stroke="rgba(50,50,50,1)" stroke-width="2" fill-opacity="1" fill="#d6dfe1"></path><g id="SvgjsG1039"><text id="SvgjsText1040" font-family="微软雅黑" text-anchor="middle" font-size="13px" width="80px" fill="#323232" font-weight="400" align="middle" lineHeight="125%" anchor="middle" family="微软雅黑" size="13px" weight="400" font-style="" opacity="1" y="14.375" transform="rotate(0)"><tspan id="SvgjsTspan1041" dy="16.25" x="50"><tspan id="SvgjsTspan1042" style="">结束</tspan></tspan></text></g></g><g id="SvgjsG1043"><path id="SvgjsPath1044" d="M322.3056077223558 213.7430607722356L322.3056077223558 220.4930607722356L322.3056077223558 220.4930607722356L322.3056077223558 225.2930607722356" stroke="#323232" stroke-width="1.5" fill="none" marker-end="url(#SvgjsMarker1045)"></path></g><g id="SvgjsG1047" transform="translate(274.3056077223558,227.9930607722356)"><path id="SvgjsPath1048" d="M 0 0L 96 0L 96 54L 0 54Z" stroke="rgba(50,50,50,1)" stroke-width="1.5" fill-opacity="1" fill="#ffffed"></path><g id="SvgjsG1049"><text id="SvgjsText1050" font-family="微软雅黑" text-anchor="middle" font-size="13px" width="76px" fill="#323232" font-weight="400" align="middle" lineHeight="125%" anchor="middle" family="微软雅黑" size="13px" weight="400" font-style="" opacity="1" y="7.875" transform="rotate(0)"><tspan id="SvgjsTspan1051" dy="16.25" x="48"><tspan id="SvgjsTspan1052" style="">比大小不断</tspan></tspan><tspan id="SvgjsTspan1053" dy="16.25" x="48"><tspan id="SvgjsTspan1054" style="">进一步</tspan></tspan></text></g></g><g id="SvgjsG1055"><path id="SvgjsPath1056" d="M322.3056077223558 282.7430607722356L322.3056077223558 289.4930607722356L322.3056077223558 289.4930607722356L322.3056077223558 294.2930607722356" stroke="#323232" stroke-width="1.5" fill="none" marker-end="url(#SvgjsMarker1057)"></path></g><g id="SvgjsG1059" transform="translate(274.3056077223558,296.9930607722356)"><path id="SvgjsPath1060" d="M 0 0L 96 0L 96 54L 0 54Z" stroke="rgba(50,50,50,1)" stroke-width="1.5" fill-opacity="1" fill="#ffffed"></path><g id="SvgjsG1061"><text id="SvgjsText1062" font-family="微软雅黑" text-anchor="middle" font-size="13px" width="76px" fill="#323232" font-weight="400" align="middle" lineHeight="125%" anchor="middle" family="微软雅黑" size="13px" weight="400" font-style="" opacity="1" y="7.875" transform="rotate(0)"><tspan id="SvgjsTspan1063" dy="16.25" x="48"><tspan id="SvgjsTspan1064" style="">记录为空前</tspan></tspan><tspan id="SvgjsTspan1065" dy="16.25" x="48"><tspan id="SvgjsTspan1066" style="">的一个结点</tspan></tspan></text></g></g><g id="SvgjsG1067" transform="translate(277.3056077223558,365.9930607722356)"><path id="SvgjsPath1068" d="M 0 35L 45 0L 90 35L 45 70L 0 35Z" stroke="rgba(50,50,50,1)" stroke-width="1.5" fill-opacity="1" fill="#ffffed"></path><g id="SvgjsG1069"><text id="SvgjsText1070" font-family="微软雅黑" text-anchor="middle" font-size="13px" width="70px" fill="#323232" font-weight="400" align="middle" lineHeight="125%" anchor="middle" family="微软雅黑" size="13px" weight="400" font-style="" opacity="1" y="24.375" transform="rotate(0)"><tspan id="SvgjsTspan1071" dy="16.25" x="45"><tspan id="SvgjsTspan1072" style="">比大小</tspan></tspan></text></g></g><g id="SvgjsG1073"><path id="SvgjsPath1074" d="M322.3056077223558 351.7430607722356L322.3056077223558 358.4930607722356L322.3056077223558 358.4930607722356L322.3056077223558 363.2930607722356" stroke="#323232" stroke-width="1.5" fill="none" marker-end="url(#SvgjsMarker1075)"></path></g><g id="SvgjsG1077"><path id="SvgjsPath1078" d="M368.0556077223558 400.9930607722356L377.3056077223558 400.9930607722356L377.3056077223558 400.9930607722356L384.6056077223558 400.9930607722356" stroke="#323232" stroke-width="1.5" fill="none" marker-end="url(#SvgjsMarker1079)"></path></g><g id="SvgjsG1081" transform="translate(387.3056077223558,365.9930607722356)"><path id="SvgjsPath1082" d="M 0 0L 100 0L 100 70L 0 70Z" stroke="rgba(50,50,50,1)" stroke-width="1.5" fill-opacity="1" fill="#ffffed"></path><g id="SvgjsG1083"><text id="SvgjsText1084" font-family="微软雅黑" text-anchor="middle" font-size="13px" width="80px" fill="#323232" font-weight="400" align="middle" lineHeight="125%" anchor="middle" family="微软雅黑" size="13px" weight="400" font-style="" opacity="1" y="24.375" transform="rotate(0)"><tspan id="SvgjsTspan1085" dy="16.25" x="50"><tspan id="SvgjsTspan1086" style="">放入</tspan></tspan></text></g></g><g id="SvgjsG1087"><path id="SvgjsPath1088" d="M276.5556077223558 400.9930607722356L265.3056077223558 400.9930607722356L265.3056077223558 400.9930607722356L256.00560772235576 400.9930607722356" stroke="#323232" stroke-width="1.5" fill="none" marker-end="url(#SvgjsMarker1089)"></path></g><g id="SvgjsG1091" transform="translate(153.30560772235577,365.9930607722356)"><path id="SvgjsPath1092" d="M 0 0L 100 0L 100 70L 0 70Z" stroke="rgba(50,50,50,1)" stroke-width="1.5" fill-opacity="1" fill="#ffffed"></path><g id="SvgjsG1093"><text id="SvgjsText1094" font-family="微软雅黑" text-anchor="middle" font-size="13px" width="80px" fill="#323232" font-weight="400" align="middle" lineHeight="125%" anchor="middle" family="微软雅黑" size="13px" weight="400" font-style="" opacity="1" y="24.375" transform="rotate(0)"><tspan id="SvgjsTspan1095" dy="16.25" x="50"><tspan id="SvgjsTspan1096" style="">放入</tspan></tspan></text></g></g><g id="SvgjsG1097" transform="translate(272.3056077223558,450.9930607722356)"><path id="SvgjsPath1098" d="M 16.666666666666668 0L 83.33333333333333 0C 105.55555555555556 0 105.55555555555556 50 83.33333333333333 50L 16.666666666666668 50C -5.555555555555556 50 -5.555555555555556 0 16.666666666666668 0Z" stroke="rgba(50,50,50,1)" stroke-width="2" fill-opacity="1" fill="#d6dfe1"></path><g id="SvgjsG1099"><text id="SvgjsText1100" font-family="微软雅黑" text-anchor="middle" font-size="13px" width="80px" fill="#323232" font-weight="400" align="middle" lineHeight="125%" anchor="middle" family="微软雅黑" size="13px" weight="400" font-style="" opacity="1" y="14.375" transform="rotate(0)"><tspan id="SvgjsTspan1101" dy="16.25" x="50"><tspan id="SvgjsTspan1102" style="">结束</tspan></tspan></text></g></g><g id="SvgjsG1103"><path id="SvgjsPath1104" d="M437.3056077223558 436.7430607722356L437.3056077223558 475.9930607722356L375.25560772235576 475.9930607722356" stroke="#323232" stroke-width="1.5" fill="none" marker-end="url(#SvgjsMarker1105)"></path></g><g id="SvgjsG1107"><path id="SvgjsPath1108" d="M203.30560772235577 436.7430607722356L203.30560772235577 475.9930607722356L269.3556077223558 475.9930607722356" stroke="#323232" stroke-width="1.5" fill="none" marker-end="url(#SvgjsMarker1109)"></path></g><g id="SvgjsG1111" transform="translate(153.30560772235577,73.99306077223558)"><path id="SvgjsPath1112" d="M 0 0L 100 0L 100 70L 0 70Z" stroke="rgba(50,50,50,1)" stroke-width="1.5" fill-opacity="1" fill="#ffffed"></path><g id="SvgjsG1113"><text id="SvgjsText1114" font-family="微软雅黑" text-anchor="middle" font-size="13px" width="80px" fill="#323232" font-weight="400" align="middle" lineHeight="125%" anchor="middle" family="微软雅黑" size="13px" weight="400" font-style="" opacity="1" y="24.375" transform="rotate(0)"><tspan id="SvgjsTspan1115" dy="16.25" x="50"><tspan id="SvgjsTspan1116" style="">放入头结点</tspan></tspan></text></g></g><g id="SvgjsG1117"><path id="SvgjsPath1118" d="M277.24791541466345 108.99306077223558L265.6517615685096 108.99306077223558L265.6517615685096 108.99306077223558L256.00560772235576 108.99306077223558" stroke="#323232" stroke-width="1.5" fill="none" marker-end="url(#SvgjsMarker1119)"></path></g><g id="SvgjsG1121"><path id="SvgjsPath1122" d="M153.24791541466345 108.99306077223558L139.49791541466345 108.99306077223558L139.49791541466345 108.99306077223558L127.94791541466347 108.99306077223558" stroke="#323232" stroke-width="1.5" fill="none" marker-end="url(#SvgjsMarker1123)"></path></g></svg>