<?xml version="1.0" standalone="no"?><!DOCTYPE svg PUBLIC "-//W3C//DTD SVG 1.1//EN" "http://www.w3.org/Graphics/SVG/1.1/DTD/svg11.dtd"><svg t="1706081922127" class="icon" viewBox="0 0 1024 1024" version="1.1" xmlns="http://www.w3.org/2000/svg" p-id="4243" xmlns:xlink="http://www.w3.org/1999/xlink" width="200" height="200"><path d="M786.56 986.24l-85.44-105.92c-57.92 38.4-124.8 57.28-201.6 57.28-74.24 0-139.84-17.92-196.48-54.08-56.64-36.16-100.8-88-132.16-155.84s-47.36-148.16-47.36-240.32 15.68-172.48 47.36-240.32S246.4 127.04 303.04 91.2c56.64-36.16 122.24-54.08 196.48-54.08s139.84 17.92 196.8 54.08c56.96 36.16 101.44 88 132.8 155.84s47.36 147.84 47.36 240.32c0 65.28-8 124.48-24.32 177.28s-39.36 98.88-69.12 137.92c31.68 38.4 70.4 86.4 117.12 144l-113.6 39.68z m-169.92-204.8c-49.6-57.92-81.28-93.12-95.68-105.92l118.08-41.6 52.8 59.52c25.6-53.12 38.08-121.92 38.08-206.08 0-105.92-20.16-186.56-60.8-242.56s-97.28-83.84-169.92-83.84c-72.96 0-129.28 27.84-169.28 83.84s-60.16 136.64-60.16 242.56 20.16 186.56 60.16 242.56c40.32 56 96.64 83.84 169.28 83.84 45.44 0.32 84.48-10.56 117.44-32.32z" p-id="4244"></path></svg>