<svg id="SvgjsSvg1245" width="330" height="522" xmlns="http://www.w3.org/2000/svg" version="1.1" xmlns:xlink="http://www.w3.org/1999/xlink" xmlns:svgjs="http://svgjs.com/svgjs"><defs id="SvgjsDefs1246"><pattern patternUnits="userSpaceOnUse" id="pattern_mark_0" width="300" height="300"><text x="150" y="100" fill="rgba(215,212,211,0.8)" font-size="18" transform="rotate(-45, 150, 150)" style="dominant-baseline: middle; text-anchor: middle;"></text></pattern><pattern patternUnits="userSpaceOnUse" id="pattern_mark_1" width="300" height="300"><text x="150" y="200" fill="rgba(215,212,211,0.8)" font-size="18" transform="rotate(-45, 150, 150)" style="dominant-baseline: middle; text-anchor: middle;"></text></pattern><marker id="SvgjsMarker1258" markerWidth="13" markerHeight="9" refX="9.5" refY="4.5" viewBox="0 0 13 9" orient="auto" markerUnits="userSpaceOnUse" stroke-dasharray="0,0"><path id="SvgjsPath1259" d="M0,0 L13,4.5 L0,9 L0,0" fill="#323232" stroke="#323232" stroke-width="1"></path></marker><marker id="SvgjsMarker1270" markerWidth="13" markerHeight="9" refX="9.5" refY="4.5" viewBox="0 0 13 9" orient="auto" markerUnits="userSpaceOnUse" stroke-dasharray="0,0"><path id="SvgjsPath1271" d="M0,0 L13,4.5 L0,9 L0,0" fill="#323232" stroke="#323232" stroke-width="1"></path></marker><marker id="SvgjsMarker1274" markerWidth="13" markerHeight="9" refX="9.5" refY="4.5" viewBox="0 0 13 9" orient="auto" markerUnits="userSpaceOnUse" stroke-dasharray="0,0"><path id="SvgjsPath1275" d="M0,0 L13,4.5 L0,9 L0,0" fill="#323232" stroke="#323232" stroke-width="1"></path></marker><marker id="SvgjsMarker1284" markerWidth="13" markerHeight="9" refX="9.5" refY="4.5" viewBox="0 0 13 9" orient="auto" markerUnits="userSpaceOnUse" stroke-dasharray="0,0"><path id="SvgjsPath1285" d="M0,0 L13,4.5 L0,9 L0,0" fill="#323232" stroke="#323232" stroke-width="1"></path></marker><marker id="SvgjsMarker1306" markerWidth="13" markerHeight="9" refX="9.5" refY="4.5" viewBox="0 0 13 9" orient="auto" markerUnits="userSpaceOnUse" stroke-dasharray="0,0"><path id="SvgjsPath1307" d="M0,0 L13,4.5 L0,9 L0,0" fill="#323232" stroke="#323232" stroke-width="1"></path></marker><marker id="SvgjsMarker1326" markerWidth="13" markerHeight="9" refX="9.5" refY="4.5" viewBox="0 0 13 9" orient="auto" markerUnits="userSpaceOnUse" stroke-dasharray="0,0"><path id="SvgjsPath1327" d="M0,0 L13,4.5 L0,9 L0,0" fill="#323232" stroke="#323232" stroke-width="1"></path></marker><marker id="SvgjsMarker1330" markerWidth="13" markerHeight="9" refX="9.5" refY="4.5" viewBox="0 0 13 9" orient="auto" markerUnits="userSpaceOnUse" stroke-dasharray="0,0"><path id="SvgjsPath1331" d="M0,0 L13,4.5 L0,9 L0,0" fill="#323232" stroke="#323232" stroke-width="1"></path></marker></defs><rect id="svgbackgroundid" width="330" height="522" fill="#efeceb"></rect><rect id="SvgjsRect1248" width="330" height="522" fill="url(#pattern_mark_0)"></rect><rect id="SvgjsRect1249" width="330" height="522" fill="url(#pattern_mark_1)"></rect><g id="SvgjsG1250" transform="translate(205,25)"><path id="SvgjsPath1251" d="M 12.666666666666666 0L 87.33333333333333 0C 104.22222222222223 0 104.22222222222223 38 87.33333333333333 38L 12.666666666666666 38C -4.222222222222222 38 -4.222222222222222 0 12.666666666666666 0Z" stroke="rgba(50,50,50,1)" stroke-width="2" fill-opacity="1" fill="#d6dfe1"></path><g id="SvgjsG1252"><text id="SvgjsText1253" font-family="微软雅黑" text-anchor="middle" font-size="13px" width="80px" fill="#323232" font-weight="400" align="middle" lineHeight="125%" anchor="middle" family="微软雅黑" size="13px" weight="400" font-style="" opacity="1" y="8.375" transform="rotate(0)"><tspan id="SvgjsTspan1254" dy="16.25" x="50"><tspan id="SvgjsTspan1255" style="">主要函数</tspan></tspan></text></g></g><g id="SvgjsG1256"><path id="SvgjsPath1257" d="M255 64L255 68.5L250 68.5L250 71.3" stroke="#323232" stroke-width="1.5" fill="none" marker-end="url(#SvgjsMarker1258)"></path></g><g id="SvgjsG1260" transform="translate(202,159)"><path id="SvgjsPath1261" d="M 0 0L 96 0L 96 54L 0 54Z" stroke="rgba(50,50,50,1)" stroke-width="1.5" fill-opacity="1" fill="#ffffed"></path><g id="SvgjsG1262"><text id="SvgjsText1263" font-family="微软雅黑" text-anchor="middle" font-size="13px" width="76px" fill="#323232" font-weight="400" align="middle" lineHeight="125%" anchor="middle" family="微软雅黑" size="13px" weight="400" font-style="" opacity="1" y="7.875" transform="rotate(0)"><tspan id="SvgjsTspan1264" dy="16.25" x="48"><tspan id="SvgjsTspan1265" style="">寻找数据最</tspan></tspan><tspan id="SvgjsTspan1266" dy="16.25" x="48"><tspan id="SvgjsTspan1267" style="">大值</tspan></tspan></text></g></g><g id="SvgjsG1268"><path id="SvgjsPath1269" d="M250 144.75L250 156.3" stroke="#323232" stroke-width="1.5" fill="none" marker-end="url(#SvgjsMarker1270)"></path></g><g id="SvgjsG1272"><path id="SvgjsPath1273" d="M250 213.75L250 220.5L255 220.5L255 225.3" stroke="#323232" stroke-width="1.5" fill="none" marker-end="url(#SvgjsMarker1274)"></path></g><g id="SvgjsG1276" transform="translate(207,228)"><path id="SvgjsPath1277" d="M 0 0L 96 0L 96 54L 0 54Z" stroke="rgba(50,50,50,1)" stroke-width="1.5" fill-opacity="1" fill="#ffffed"></path><g id="SvgjsG1278"><text id="SvgjsText1279" font-family="微软雅黑" text-anchor="middle" font-size="13px" width="76px" fill="#323232" font-weight="400" align="middle" lineHeight="125%" anchor="middle" family="微软雅黑" size="13px" weight="400" font-style="" opacity="1" y="16.375" transform="rotate(0)"><tspan id="SvgjsTspan1280" dy="16.25" x="48"><tspan id="SvgjsTspan1281" style="">创建桶</tspan></tspan></text></g></g><g id="SvgjsG1282"><path id="SvgjsPath1283" d="M255 282.75L255 298.3" stroke="#323232" stroke-width="1.5" fill="none" marker-end="url(#SvgjsMarker1284)"></path></g><g id="SvgjsG1286" transform="translate(207,301)"><path id="SvgjsPath1287" d="M 0 0L 96 0L 96 54L 0 54Z" stroke="rgba(50,50,50,1)" stroke-width="1.5" fill-opacity="1" fill="#ffffed"></path><g id="SvgjsG1288"><text id="SvgjsText1289" font-family="微软雅黑" text-anchor="middle" font-size="13px" width="76px" fill="#323232" font-weight="400" align="middle" lineHeight="125%" anchor="middle" family="微软雅黑" size="13px" weight="400" font-style="" opacity="1" y="16.375" transform="rotate(0)"><tspan id="SvgjsTspan1290" dy="16.25" x="48"><tspan id="SvgjsTspan1291" style="">循环装桶</tspan></tspan></text></g></g><g id="SvgjsG1292" transform="translate(205,447)"><path id="SvgjsPath1293" d="M 16.666666666666668 0L 83.33333333333333 0C 105.55555555555556 0 105.55555555555556 50 83.33333333333333 50L 16.666666666666668 50C -5.555555555555556 50 -5.555555555555556 0 16.666666666666668 0Z" stroke="rgba(50,50,50,1)" stroke-width="2" fill-opacity="1" fill="#d6dfe1"></path><g id="SvgjsG1294"><text id="SvgjsText1295" font-family="微软雅黑" text-anchor="middle" font-size="13px" width="80px" fill="#323232" font-weight="400" align="middle" lineHeight="125%" anchor="middle" family="微软雅黑" size="13px" weight="400" font-style="" opacity="1" y="14.375" transform="rotate(0)"><tspan id="SvgjsTspan1296" dy="16.25" x="50"><tspan id="SvgjsTspan1297" style="">结束</tspan></tspan></text></g></g><g id="SvgjsG1298" transform="translate(205,74)"><path id="SvgjsPath1299" d="M 0 35L 45 0L 90 35L 45 70L 0 35Z" stroke="rgba(50,50,50,1)" stroke-width="1.5" fill-opacity="1" fill="#ffffed"></path><g id="SvgjsG1300"><text id="SvgjsText1301" font-family="微软雅黑" text-anchor="middle" font-size="13px" width="70px" fill="#323232" font-weight="400" align="middle" lineHeight="125%" anchor="middle" family="微软雅黑" size="13px" weight="400" font-style="" opacity="1" y="24.375" transform="rotate(0)"><tspan id="SvgjsTspan1302" dy="16.25" x="45"><tspan id="SvgjsTspan1303" style="">arr存在？</tspan></tspan></text></g></g><g id="SvgjsG1304"><path id="SvgjsPath1305" d="M204.25 109L165 109L165 109L127.94999999999999 109" stroke="#323232" stroke-width="1.5" fill="none" marker-end="url(#SvgjsMarker1306)"></path><rect id="SvgjsRect1308" width="39" height="16" x="148.44789062499999" y="101" fill="#ffffff"></rect><text id="SvgjsText1309" font-family="微软雅黑" text-anchor="middle" font-size="13px" width="39px" fill="#323232" font-weight="400" align="top" lineHeight="16px" anchor="middle" family="微软雅黑" size="13px" weight="400" font-style="" opacity="1" y="98.375" transform="rotate(0)"><tspan id="SvgjsTspan1310" dy="16.25" x="167.94789062499999"><tspan id="SvgjsTspan1311" style="">不存在</tspan></tspan></text></g><g id="SvgjsG1312" transform="translate(25,84)"><path id="SvgjsPath1313" d="M 16.666666666666668 0L 83.33333333333333 0C 105.55555555555556 0 105.55555555555556 50 83.33333333333333 50L 16.666666666666668 50C -5.555555555555556 50 -5.555555555555556 0 16.666666666666668 0Z" stroke="rgba(50,50,50,1)" stroke-width="2" fill-opacity="1" fill="#d6dfe1"></path><g id="SvgjsG1314"><text id="SvgjsText1315" font-family="微软雅黑" text-anchor="middle" font-size="13px" width="80px" fill="#323232" font-weight="400" align="middle" lineHeight="125%" anchor="middle" family="微软雅黑" size="13px" weight="400" font-style="" opacity="1" y="14.375" transform="rotate(0)"><tspan id="SvgjsTspan1316" dy="16.25" x="50"><tspan id="SvgjsTspan1317" style="">结束</tspan></tspan></text></g></g><g id="SvgjsG1318" transform="translate(207,374)"><path id="SvgjsPath1319" d="M 0 0L 96 0L 96 54L 0 54Z" stroke="rgba(50,50,50,1)" stroke-width="1.5" fill-opacity="1" fill="#ffffed"></path><g id="SvgjsG1320"><text id="SvgjsText1321" font-family="微软雅黑" text-anchor="middle" font-size="13px" width="76px" fill="#323232" font-weight="400" align="middle" lineHeight="125%" anchor="middle" family="微软雅黑" size="13px" weight="400" font-style="" opacity="1" y="16.375" transform="rotate(0)"><tspan id="SvgjsTspan1322" dy="16.25" x="48"><tspan id="SvgjsTspan1323" style="">倒桶</tspan></tspan></text></g></g><g id="SvgjsG1324"><path id="SvgjsPath1325" d="M255 355.75L255 371.3" stroke="#323232" stroke-width="1.5" fill="none" marker-end="url(#SvgjsMarker1326)"></path></g><g id="SvgjsG1328"><path id="SvgjsPath1329" d="M255 428.75L255 437.5L255 437.5L255 444.05" stroke="#323232" stroke-width="1.5" fill="none" marker-end="url(#SvgjsMarker1330)"></path></g></svg>